/* XPM */
static char *magick[] = {
/* columns rows colors chars-per-pixel */
"32 32 18 1",
"  c Gray0",
". c #191919",
"X c Gray20",
"o c #7f0000",
"O c #7f007f",
"+ c #7f7f00",
"@ c #4c4c4c",
"# c #666667",
"$ c Gray50",
"% c Red",
"& c Magenta",
"* c Yellow",
"= c Gray60",
"- c #b2b2b2",
"; c Gray80",
": c Gray90",
"> c Gray100",
", c None",
/* pixels */
",,,,,,,,,,,,,,,,,,,,,,,,,,,,,,,,",
",,,,,,,,,,,,,,,,,,,,,,,,,,,,,,,,",
",,,,,,,,,,,,,,,,,,,,,,,,,,,,,,,,",
",,,,,,,,,,,,,,,,,,,,,,,,,,,,,,,,",
",,,,,,,,,,,,,,,,,,    ,,,,,,,,,,",
",,,,,,,,,,,,,,,,   ,,,  ,,,,,,,,",
",,,,,,,,,,,,,,,  ,oOO@,  ,,,,,,,",
",,,,,,,,,,,,,, , O%&%&%., ,,,,,,",
",,,,,,,,,,,,,  .%O%oO%&%., ,,,,,",
",,,,,,,,,,,   ,OO.oO$o.O%., ,,,,",
",,,,,     . , oOo$--;-XoOO, ,,,,",
",,,,  ,,,, .o%%.#:-;-;-oO%., ,,,",
",,, ,+o@++o%%$%OO=&%-;;.o&O, ,,,",
",, ,o****%**+*+ooOooo@OoO%o, ,,,",
", , o++o%%++%o#+%O#*%O&%%$%+o, ,",
", ,.*%%X++@%*Xoo+++%*+%=%%+*o, ,",
", ,+*%*+*+o*+@+o%%+%=*%%%**%+.,.",
", ,+*.o.O%*+%o+@**+*%++**+.X++, ",
", ,.X   .o+%%%Xo$%%=%*%+o.   + ,",
" ,       ..#%%oo%%%%+%o ..      ",
",   .#=@.  oo%Xoo%o%%@.  .#$X   ",
",   #>>;#   X%oXoo%o%X   =:>-.  ",
",   =>:>$   oooX@oooo.   ->>;.  ",
",   @:>;@   o%oo%o%#%X . #::=   ",
",   .#$@.   .ooo.oooo.   .##X   ",
" ,           , ,,,,, ,          ",
" ,          ,        ,          ",
",          , ,,,,,,,,          ,",
",,  ,,,,,,  ,,,,,,,,,,  ,,,,,,  ",
",,,        ,,,,,,,,,,,,        ,",
",,,,,,,,,,,,,,,,,,,,,,,,,,,,,,,,",
",,,,,,,,,,,,,,,,,,,,,,,,,,,,,,,,"
};
