/* XPM */
static char * moon_buggy_xpm[] = {
"48 48 583 2",
"  	c None",
". 	c #FF1691",
"+ 	c #E3105D",
"@ 	c #EA1261",
"# 	c #EC1062",
"$ 	c #EE1063",
"% 	c #E81061",
"& 	c #E40F60",
"* 	c #E10E5F",
"= 	c #EE1262",
"- 	c #E9115F",
"; 	c #F31062",
"> 	c #FF1068",
", 	c #FF1166",
"' 	c #F81166",
") 	c #FE1066",
"! 	c #F40F62",
"~ 	c #E60D5E",
"{ 	c #EA0F62",
"] 	c #E20E5F",
"^ 	c #FF126D",
"/ 	c #FF1376",
"( 	c #920E3C",
"_ 	c #510E25",
": 	c #5A0E28",
"< 	c #000701",
"[ 	c #000700",
"} 	c #520D25",
"| 	c #9D0C43",
"1 	c #CC0D57",
"2 	c #FF1278",
"3 	c #FF106B",
"4 	c #DB1256",
"5 	c #D6105A",
"6 	c #600C2E",
"7 	c #470923",
"8 	c #3B081C",
"9 	c #850E39",
"0 	c #960E3F",
"a 	c #C78AA1",
"b 	c #BF7692",
"c 	c #510A24",
"d 	c #3B0A1D",
"e 	c #40091C",
"f 	c #C00D52",
"g 	c #E70D60",
"h 	c #E50F61",
"i 	c #DC1058",
"j 	c #C90F58",
"k 	c #1D0A12",
"l 	c #2B0917",
"m 	c #A56E85",
"n 	c #BE7995",
"o 	c #C98AA3",
"p 	c #CC91A7",
"q 	c #BE7795",
"r 	c #A96A83",
"s 	c #170710",
"t 	c #000800",
"u 	c #B30E4A",
"v 	c #E90C5E",
"w 	c #F31066",
"x 	c #F61205",
"y 	c #F90F3D",
"z 	c #270B0A",
"A 	c #000903",
"B 	c #5A0A28",
"C 	c #D8A7B9",
"D 	c #DCA9C1",
"E 	c #DBA8BE",
"F 	c #DBA8BC",
"G 	c #DCA9C0",
"H 	c #14090F",
"I 	c #800C38",
"J 	c #890A3A",
"K 	c #FF106D",
"L 	c #FA1067",
"M 	c #DC0612",
"N 	c #E2070E",
"O 	c #EA0A0A",
"P 	c #C90B3A",
"Q 	c #4F0A22",
"R 	c #25081D",
"S 	c #DAA9BB",
"T 	c #D4A3B5",
"U 	c #D5A4B6",
"V 	c #D3A0B4",
"W 	c #DBA8BB",
"X 	c #BA7790",
"Y 	c #69092E",
"Z 	c #4D0924",
"` 	c #FF1175",
" .	c #DC0012",
"..	c #E4000F",
"+.	c #ED050C",
"@.	c #A7012E",
"#.	c #500424",
"$.	c #29071F",
"%.	c #D3A2B4",
"&.	c #D3A0B3",
"*.	c #C78CA1",
"=.	c #520A26",
"-.	c #250714",
";.	c #FF127E",
">.	c #FF0F75",
",.	c #FFAE18",
"'.	c #FFAE16",
").	c #FFB118",
"!.	c #FFB116",
"~.	c #FFB016",
"{.	c #FFA912",
"].	c #EBA412",
"^.	c #DC9F12",
"/.	c #DC9E12",
"(.	c #DC9D12",
"_.	c #DC9312",
":.	c #E5920F",
"<.	c #F48D0D",
"[.	c #8F371E",
"}.	c #7C1435",
"|.	c #5E0333",
"1.	c #FF0B79",
"2.	c #DC0C5E",
"3.	c #DF0C60",
"4.	c #DF026B",
"5.	c #DF0053",
"6.	c #DF004A",
"7.	c #D46593",
"8.	c #D49FB4",
"9.	c #D6A5B9",
"0.	c #DCA9BD",
"a.	c #000900",
"b.	c #000600",
"c.	c #FF0F7D",
"d.	c #F4056E",
"e.	c #F8007B",
"f.	c #DC6F10",
"g.	c #DD7011",
"h.	c #E3730E",
"i.	c #E9780F",
"j.	c #EA780D",
"k.	c #E4750D",
"l.	c #E3740F",
"m.	c #E1720D",
"n.	c #E7760F",
"o.	c #E7740F",
"p.	c #E47510",
"q.	c #DE7111",
"r.	c #E17311",
"s.	c #F07C0E",
"t.	c #FF840E",
"u.	c #733211",
"v.	c #7F2924",
"w.	c #230712",
"x.	c #FF0674",
"y.	c #EB244E",
"z.	c #FF3153",
"A.	c #E37310",
"B.	c #FF8111",
"C.	c #D76C0E",
"D.	c #FB800D",
"E.	c #E9770D",
"F.	c #F47D0E",
"G.	c #E8760F",
"H.	c #FF8310",
"I.	c #DA6C10",
"J.	c #FA8012",
"K.	c #E97810",
"L.	c #FE8510",
"M.	c #F38011",
"N.	c #F18110",
"O.	c #874410",
"P.	c #862C23",
"Q.	c #812326",
"R.	c #FF1772",
"S.	c #EE0868",
"T.	c #DF006D",
"U.	c #F82555",
"V.	c #DF5328",
"W.	c #DF6816",
"X.	c #DF373C",
"Y.	c #DF115B",
"Z.	c #E00863",
"`.	c #EA0B66",
" +	c #F60F66",
".+	c #F50B67",
"++	c #EB0069",
"@+	c #E22845",
"#+	c #F33A40",
"$+	c #FFA200",
"%+	c #FF8418",
"&+	c #DC6C11",
"*+	c #E5740F",
"=+	c #CF6710",
"-+	c #000015",
";+	c #8D450D",
">+	c #FA800D",
",+	c #A04C0D",
"'+	c #723310",
")+	c #000012",
"!+	c #914610",
"~+	c #ED780F",
"{+	c #FF870F",
"]+	c #000018",
"^+	c #9D500D",
"/+	c #8D4A0F",
"(+	c #764707",
"_+	c #D16B0D",
":+	c #382C00",
"<+	c #151D01",
"[+	c #FF8C0D",
"}+	c #DF8202",
"|+	c #DF8500",
"1+	c #DF6B18",
"2+	c #DF3143",
"3+	c #DF1A53",
"4+	c #DF0073",
"5+	c #DF006C",
"6+	c #DF1857",
"7+	c #DF5229",
"8+	c #DF601B",
"9+	c #DF8302",
"0+	c #DF710D",
"a+	c #DF6C0D",
"b+	c #FFA314",
"c+	c #DC6A11",
"d+	c #E47410",
"e+	c #FA7E11",
"f+	c #9A4B0E",
"g+	c #D86D0D",
"h+	c #F67E0E",
"i+	c #DC700F",
"j+	c #9D4D10",
"k+	c #E87612",
"l+	c #EB7710",
"m+	c #FF8410",
"n+	c #B15911",
"o+	c #4A2012",
"p+	c #863E11",
"q+	c #8D4510",
"r+	c #FF7F15",
"s+	c #AD5311",
"t+	c #924310",
"u+	c #FF8211",
"v+	c #DF720E",
"w+	c #DF780B",
"x+	c #DF730C",
"y+	c #DF5724",
"z+	c #DF5127",
"A+	c #DF3A3B",
"B+	c #DF373D",
"C+	c #DF5026",
"D+	c #DF6B10",
"E+	c #DF7A09",
"F+	c #DF700D",
"G+	c #FFAB14",
"H+	c #DC6411",
"I+	c #DE7011",
"J+	c #E9760E",
"K+	c #F27C0F",
"L+	c #E8770D",
"M+	c #E5750F",
"N+	c #E4730D",
"O+	c #F07A0F",
"P+	c #E07111",
"Q+	c #E67411",
"R+	c #FF8F0F",
"S+	c #030012",
"T+	c #844210",
"U+	c #92470F",
"V+	c #FF850D",
"W+	c #C2600D",
"X+	c #B55C0F",
"Y+	c #F17E0D",
"Z+	c #DF750D",
"`+	c #DF750C",
" @	c #DF7408",
".@	c #DF6119",
"+@	c #DF5A1C",
"@@	c #DF3E36",
"#@	c #DF4431",
"$@	c #DF4231",
"%@	c #DF5E1C",
"&@	c #DF6E0E",
"*@	c #DF720B",
"=@	c #DF740C",
"-@	c #DF6B0D",
";@	c #DF630D",
">@	c #D4B20D",
",@	c #FFFF19",
"'@	c #FFAC14",
")@	c #FFA617",
"!@	c #FF9F16",
"~@	c #FFA318",
"{@	c #FFA115",
"]@	c #FF9814",
"^@	c #FF8914",
"/@	c #EF7711",
"(@	c #DF7510",
"_@	c #DF7B0F",
":@	c #DE7C10",
"<@	c #DD7C11",
"[@	c #FF8C10",
"}@	c #010012",
"|@	c #B05A10",
"1@	c #C36710",
"2@	c #EB770F",
"3@	c #EB7810",
"4@	c #E5750D",
"5@	c #DF720D",
"6@	c #DF730B",
"7@	c #DF7808",
"8@	c #DF7F02",
"9@	c #DF8300",
"0@	c #E18600",
"a@	c #E98A01",
"b@	c #FF9008",
"c@	c #FF980E",
"d@	c #FFA013",
"e@	c #FFA416",
"f@	c #FFEE13",
"g@	c #FFDC12",
"h@	c #563907",
"i@	c #382304",
"j@	c #201104",
"k@	c #0E0703",
"l@	c #221001",
"m@	c #241503",
"n@	c #BA4709",
"o@	c #E47F11",
"p@	c #F69311",
"q@	c #E86712",
"r@	c #E15E10",
"s@	c #DD5911",
"t@	c #E15F0E",
"u@	c #FF7A0F",
"v@	c #A85210",
"w@	c #B95C0F",
"x@	c #F9840D",
"y@	c #DF770D",
"z@	c #DF770F",
"A@	c #E2790D",
"B@	c #E2780D",
"C@	c #E2750D",
"D@	c #E2740D",
"E@	c #E3730D",
"F@	c #E8730E",
"G@	c #F18010",
"H@	c #F6820F",
"I@	c #D9660D",
"J@	c #5F3007",
"K@	c #331B04",
"L@	c #050101",
"M@	c #281402",
"N@	c #2F1201",
"O@	c #7D7008",
"P@	c #CAAD0C",
"Q@	c #FBD80F",
"R@	c #332D01",
"S@	c #000000",
"T@	c #B94209",
"U@	c #F68C0E",
"V@	c #FFA80E",
"W@	c #FF7613",
"X@	c #ED600E",
"Y@	c #E6590E",
"Z@	c #E55E0E",
"`@	c #F16F0F",
" #	c #FF740F",
".#	c #030C13",
"+#	c #A95610",
"@#	c #BB660E",
"##	c #FB8D0F",
"$#	c #E2850F",
"%#	c #E1800E",
"&#	c #E2810D",
"*#	c #E1800D",
"=#	c #E17D0D",
"-#	c #E17E0D",
";#	c #E27B0D",
">#	c #E77C0B",
",#	c #FF860F",
"'#	c #FF870E",
")#	c #FF9011",
"!#	c #E76D0F",
"~#	c #401E03",
"{#	c #635707",
"]#	c #C3A40B",
"^#	c #A00019",
"/#	c #BF0025",
"(#	c #CB032A",
"_#	c #D0001B",
":#	c #E0001C",
"<#	c #F8001B",
"[#	c #000014",
"}#	c #9D0018",
"|#	c #AD0019",
"1#	c #EA0018",
"2#	c #D1011A",
"3#	c #D20A19",
"4#	c #D42F19",
"5#	c #D23A16",
"6#	c #D24216",
"7#	c #D54B1A",
"8#	c #DF4F19",
"9#	c #FC561B",
"0#	c #FF751C",
"a#	c #000003",
"b#	c #0B0B0B",
"c#	c #0E0E0E",
"d#	c #121212",
"e#	c #000601",
"f#	c #9D1513",
"g#	c #D41C1C",
"h#	c #C01515",
"i#	c #C81A18",
"j#	c #D9181A",
"k#	c #000512",
"l#	c #841319",
"m#	c #901316",
"n#	c #D61B1B",
"o#	c #BE1E1D",
"p#	c #BF1A1B",
"q#	c #C3241D",
"r#	c #C3221F",
"s#	c #C2251F",
"t#	c #CC2621",
"u#	c #BB211C",
"v#	c #BB1D19",
"w#	c #081500",
"x#	c #010101",
"y#	c #141414",
"z#	c #060606",
"A#	c #080808",
"B#	c #040404",
"C#	c #070707",
"D#	c #941111",
"E#	c #CE1818",
"F#	c #CE1616",
"G#	c #C01715",
"H#	c #D31819",
"I#	c #000814",
"J#	c #7B1318",
"K#	c #841419",
"L#	c #D21C1B",
"M#	c #BB1A1D",
"N#	c #BC161B",
"O#	c #C01920",
"P#	c #C21822",
"Q#	c #C31722",
"R#	c #DC1926",
"S#	c #B21321",
"T#	c #AF0E1D",
"U#	c #191919",
"V#	c #090909",
"W#	c #707070",
"X#	c #D3D3D3",
"Y#	c #FFFFFF",
"Z#	c #8C8C8C",
"`#	c #666666",
" $	c #0F0000",
".$	c #0E0000",
"+$	c #CD0F0F",
"@$	c #BE1110",
"#$	c #D11411",
"$$	c #060511",
"%$	c #8F1010",
"&$	c #9A0E0E",
"*$	c #CA0F0C",
"=$	c #AF0D0D",
"-$	c #AE0F0F",
";$	c #AB0D0D",
">$	c #A90B0B",
",$	c #A80A0A",
"'$	c #D71111",
")$	c #4C0303",
"!$	c #370202",
"~$	c #5D5D5D",
"{$	c #838383",
"]$	c #C9C9C9",
"^$	c #BCBCBC",
"/$	c #1C1C1C",
"($	c #050505",
"_$	c #F4F4F4",
":$	c #C3C3C3",
"<$	c #BDBDBD",
"[$	c #070000",
"}$	c #CD1010",
"|$	c #A10D0C",
"1$	c #B40F0B",
"2$	c #100A15",
"3$	c #600B12",
"4$	c #640B11",
"5$	c #B80E0B",
"6$	c #A00C0C",
"7$	c #A20F0F",
"8$	c #A40E0E",
"9$	c #A91111",
"0$	c #AA1010",
"a$	c #ED1919",
"b$	c #2E0808",
"c$	c #050303",
"d$	c #A4A4A4",
"e$	c #555555",
"f$	c #1B1B1B",
"g$	c #E3E3E3",
"h$	c #E4E4E4",
"i$	c #CB0D0D",
"j$	c #940B0A",
"k$	c #9E0C0B",
"l$	c #230B16",
"m$	c #4F0B11",
"n$	c #540B13",
"o$	c #B0100E",
"p$	c #A00F0F",
"q$	c #A21111",
"r$	c #A81010",
"s$	c #AA1212",
"t$	c #F71717",
"u$	c #200404",
"v$	c #BFBFBF",
"w$	c #EFEFEF",
"x$	c #6E6E6E",
"y$	c #1F1F1F",
"z$	c #F6F6F6",
"A$	c #D10F0F",
"B$	c #870C0B",
"C$	c #920C0B",
"D$	c #7B090A",
"E$	c #83090A",
"F$	c #790B0B",
"G$	c #890A09",
"H$	c #810909",
"I$	c #820B0B",
"J$	c #840B0B",
"K$	c #800B0B",
"L$	c #C30F0F",
"M$	c #040101",
"N$	c #CFCFCF",
"O$	c #7C7C7C",
"P$	c #272727",
"Q$	c #8D8D8D",
"R$	c #828282",
"S$	c #DC0F0F",
"T$	c #960C0C",
"U$	c #9B0C0E",
"V$	c #940C0E",
"W$	c #970C0E",
"X$	c #950C0E",
"Y$	c #990C0C",
"Z$	c #980C0C",
"`$	c #970E0E",
" %	c #960E0E",
".%	c #950E0E",
"+%	c #980E0E",
"@%	c #D21111",
"#%	c #210202",
"$%	c #717171",
"%%	c #FEFEFE",
"&%	c #C5C5C5",
"*%	c #252525",
"=%	c #BEBEBE",
"-%	c #E5E5E5",
";%	c #F5F5F5",
">%	c #606060",
",%	c #040000",
"'%	c #0C0000",
")%	c #DC0E0E",
"!%	c #AF0C0C",
"~%	c #B00C0C",
"{%	c #B10C0C",
"]%	c #B20C0C",
"^%	c #D30E0E",
"/%	c #390303",
"(%	c #030000",
"_%	c #5A5A5A",
":%	c #7A7A7A",
"<%	c #F9F9F9",
"[%	c #B8B8B8",
"}%	c #ACACAC",
"|%	c #0A0A0A",
"1%	c #020202",
"2%	c #030303",
"                                                                                                ",
"                                                                                                ",
"                                                                                                ",
"                                                                                                ",
"                                                                                                ",
"                                                                                                ",
"                                                                                                ",
"                                                                                                ",
"                                                                                                ",
"                                                      . . . . .                                 ",
"                                                  + @ # $ $ # % & *                             ",
"                                                = - ; > , ' ) ! ~ { ]                           ",
"                                              ^ / ( _ : < [ } | 1 2 3 {                         ",
"                                            4 5 6 7 8 9 0 a b c d e f g h                       ",
"                                            i j k l m n o p q r s t u v w                       ",
"                                        x y z A B C D E F F E D G H I J K L                     ",
"                                    M N O P Q R S T U V V V V U W X Y Z ` L                     ",
"                                 . . ...+.@.#.$.G T %.V V &.V T U *.=.-.;.L >.                  ",
"              ,.'.).!.!.~.{.].^./.(._.:.<.[.}.|.1.2.3.4.5.6.7.8.9.0.a.b.c.d.e.                  ",
"            f.g.h.i.j.k.l.m.n.o.p.q.r.s.t.u.v.w.w.w.w.w.w.w.w.w.w.w.w.w.x.y.z.                  ",
"            f.A.B.C.D.E.F.G.H.I.J.K.L.M.N.O.P.Q.R.S.T.U.V.W.X.Y.Z.`. +.+++@+#+$+                ",
"          %+&+*+=+-+w.;+>+,+'+)+!+~+{+]+]+^+/+(+_+:+<+[+}+|+1+2+3+4+5+5+6+7+8+9+0+a+            ",
"          b+c+d+e+f+w.g+h+i+w.j+k+l+m+w.n+o+p+q+r+s+t+u+v+w+x+y+z+2+A+B+C+W.D+E+F+a+            ",
"          G+H+I+J+K+w.L+M+N+w.O+l+P+Q+w.R+S+T+U+V+W+X+Y+Z+`+ @.@+@@@#@$@%@&@*@=@-@;@            ",
"        >@,@'@)@!@~@{@]@^@/@w.(@_@:@<@w.[@}@|@1@{+2@3@4@5@F+6@7@8@9@0@a@b@c@d@{@e@{@f@          ",
"          g@h@i@j@k@l@m@n@o@p@q@r@s@t@w.u@)+v@w@x@y@z@A@B@C@C@D@E@F@G@H@I@J@K@L@M@N@O@P@        ",
"          Q@R@[ S@S@S@S@T@U@V@W@X@Y@Z@`@ #.#+#@###$#%#&#*#=#-#;#>#,#'#)#!#~#S@S@S@S@{#]#        ",
"        S@S@S@S@S@S@S@S@S@S@S@^#/#(#_#:#<#[#}#|#1#2#3#4#5#6#7#8#9#0#a#S@S@S@S@S@S@S@S@S@S@      ",
"      S@S@S@S@b#c#d#S@S@S@S@S@e#f#g#h#i#j#k#l#m#n#o#p#q#r#s#t#u#v#w#S@S@S@x#S@y#z#A#S@S@S@S@    ",
"      S@S@S@S@B#C#d#S@S@S@S@S@S@D#E#F#G#H#I#J#K#L#M#N#O#P#Q#R#S#T#S@S@S@S@S@S@U#S@V#S@S@S@S@    ",
"    S@S@S@S@W#X#Y#Y#Z#`#S@S@S@S@ $.$+$@$#$$$%$&$*$=$-$;$>$,$'$)$!$S@S@S@S@~${$Y#]$^$/$($S@S@S@  ",
"  S@S@S@b#B#X#_$Y#Y#:$<$S@($S@S@[$S@}$|$1$2$3$4$5$6$7$8$9$0$a$b$c$S@S@S@S@d$]$Y#_$Y#e$f$S@S@S@  ",
"  S@S@S@c#C#Y#Y#Y#Y#g$h$S@z#S@S@S@S@i$j$k$l$m$n$o$p$p$q$r$s$t$u$S@S@S@S@x#v$w$Y#Y#Y#x$y$S@S@S@  ",
"  S@S@S@d#d#Y#Y#Y#Y#z$_$S@V#S@S@S@S@A$B$C$D$E$F$G$H$I$J$I$K$L$M$S@S@S@S@b#N$Y#Y#Y#Y#O$P$S@S@S@  ",
"  S@S@S@S@S@Z#:$g$z$Q$R$S@S@S@S@S@S@S$T$U$V$W$X$Y$Z$`$ %.%+%@%#%S@S@S@S@S@$%Z#%%<$&%*%V#S@S@S@  ",
"  S@S@S@S@S@`#=%-%;%R$>%S@S@S@S@,%'%)%!%~%{%]%{%~%!%!%!%!%!%^%/%(%S@S@S@S@_%:%<%[%}%/$V#S@S@S@  ",
"    S@S@S@S@S@S@S@S@S@S@S@S@S@S@S@S@                            S@S@S@S@S@S@S@S@S@S@S@S@S@S@S@  ",
"      S@S@S@S@z#C#|%S@S@S@S@S@S@S@                                S@S@S@S@S@1%V#2%($S@S@S@S@S@  ",
"      S@S@S@S@S@S@S@S@S@S@S@S@S@                                  S@S@S@S@S@S@S@S@S@S@S@S@S@    ",
"        S@S@S@S@S@S@S@S@S@S@S@                                      S@S@S@S@S@S@S@S@S@S@S@      ",
"            S@S@S@S@S@S@S@S@                                            S@S@S@S@S@S@S@S@        ",
"                                                                                                ",
"                                                                                                ",
"                                                                                                ",
"                                                                                                ",
"                                                                                                ",
"                                                                                                ",
"                                                                                                "};
